<svg id="visual" viewBox="0 0 1920 1080" width="1920" height="1080" xmlns="http://www.w3.org/2000/svg" xmlns:xlink="http://www.w3.org/1999/xlink" version="1.1"><rect x="0" y="0" width="1920" height="1080" fill="#333333"></rect><defs><linearGradient id="grad1_0" x1="43.8%" y1="0%" x2="100%" y2="100%"><stop offset="14.444444444444446%" stop-color="#fed621" stop-opacity="1"></stop><stop offset="85.55555555555554%" stop-color="#fed621" stop-opacity="1"></stop></linearGradient></defs><defs><linearGradient id="grad1_1" x1="43.8%" y1="0%" x2="100%" y2="100%"><stop offset="14.444444444444446%" stop-color="#fed621" stop-opacity="1"></stop><stop offset="85.55555555555554%" stop-color="#333333" stop-opacity="1"></stop></linearGradient></defs><defs><linearGradient id="grad2_0" x1="0%" y1="0%" x2="56.3%" y2="100%"><stop offset="14.444444444444446%" stop-color="#fed621" stop-opacity="1"></stop><stop offset="85.55555555555554%" stop-color="#fed621" stop-opacity="1"></stop></linearGradient></defs><defs><linearGradient id="grad2_1" x1="0%" y1="0%" x2="56.3%" y2="100%"><stop offset="14.444444444444446%" stop-color="#333333" stop-opacity="1"></stop><stop offset="85.55555555555554%" stop-color="#fed621" stop-opacity="1"></stop></linearGradient></defs><g transform="translate(1920, 0)"><path d="M0 864C-115 855.4 -230 846.7 -330.6 798.2C-431.3 749.8 -517.6 661.4 -567.8 567.8C-618 474.2 -632 375.3 -675.4 279.7C-718.7 184.2 -791.3 92.1 -864 0L0 0Z" fill="#957f37"></path><path d="M0 432C-57.5 427.7 -115 423.4 -165.3 399.1C-215.6 374.9 -258.8 330.7 -283.9 283.9C-309 237.1 -316 187.6 -337.7 139.9C-359.3 92.1 -395.7 46.1 -432 0L0 0Z" fill="#fed621"></path></g><g transform="translate(0, 1080)"><path d="M0 -864C117 -834 234.1 -803.9 303.1 -731.7C372.1 -659.5 393 -545.1 480.8 -480.8C568.6 -416.6 723.2 -402.4 798.2 -330.6C873.2 -258.9 868.6 -129.4 864 0L0 0Z" fill="#957f37"></path><path d="M0 -432C58.5 -417 117 -402 151.5 -365.9C186 -329.7 196.5 -272.6 240.4 -240.4C284.3 -208.3 361.6 -201.2 399.1 -165.3C436.6 -129.4 434.3 -64.7 432 0L0 0Z" fill="#fed621"></path></g></svg>